<svg xmlns="http://www.w3.org/2000/svg" xmlns:xlink="http://www.w3.org/1999/xlink" width="500" zoomAndPan="magnify" viewBox="0 0 375 374.999991" height="500" preserveAspectRatio="xMidYMid meet" version="1.0"><defs><g/><clipPath id="173aa25949"><path d="M 104.425781 121 L 192 121 L 192 182 L 104.425781 182 Z M 104.425781 121 " clip-rule="nonzero"/></clipPath><clipPath id="7d83248747"><path d="M 204.457031 118.347656 L 263.402344 118.347656 L 263.402344 193.566406 L 204.457031 193.566406 Z M 204.457031 118.347656 " clip-rule="nonzero"/></clipPath><clipPath id="ddcf244ab7"><path d="M 152 114.816406 L 228 114.816406 L 228 191 L 152 191 Z M 152 114.816406 " clip-rule="nonzero"/></clipPath></defs><g clip-path="url(#173aa25949)"><path fill="#ffffff" d="M 133.902344 174.574219 L 133.902344 174.566406 L 146.582031 174.566406 C 148.105469 174.566406 149.515625 173.074219 149.714844 171.253906 C 149.917969 169.433594 148.839844 167.941406 147.320312 167.941406 L 134.640625 167.941406 L 134.640625 167.933594 L 123.484375 167.933594 C 121.964844 167.933594 121.089844 166.453125 121.089844 164.621094 C 121.089844 162.789062 122.703125 161.308594 124.222656 161.308594 L 135.378906 161.308594 L 135.378906 161.300781 L 148.058594 161.300781 C 149.578125 161.300781 150.988281 159.808594 151.191406 157.988281 C 151.394531 156.167969 150.316406 154.675781 148.796875 154.675781 L 136.113281 154.675781 L 136.117188 154.667969 L 106.847656 154.667969 C 105.324219 154.667969 104.449219 153.1875 104.449219 151.355469 C 104.449219 149.523438 106.0625 148.046875 107.582031 148.046875 L 136.851562 148.046875 L 136.855469 148.035156 L 149.535156 148.035156 C 151.054688 148.035156 152.464844 146.546875 152.667969 144.722656 C 152.871094 142.902344 151.792969 141.414062 150.269531 141.414062 L 137.589844 141.414062 L 137.59375 141.402344 L 131.394531 141.402344 C 129.875 141.402344 128.996094 139.925781 128.996094 138.09375 C 128.996094 136.257812 130.609375 134.78125 132.132812 134.78125 L 138.328125 134.78125 L 138.328125 134.769531 L 151.011719 134.769531 C 152.53125 134.769531 153.941406 133.28125 154.144531 131.460938 C 154.347656 129.636719 153.265625 128.148438 151.746094 128.148438 L 139.066406 128.148438 L 139.066406 128.140625 L 118.757812 128.140625 C 117.238281 128.140625 116.363281 126.660156 116.363281 124.828125 C 116.363281 122.996094 117.976562 121.515625 119.496094 121.515625 L 152.484375 121.515625 C 152.53125 121.515625 152.578125 121.519531 152.625 121.519531 L 191.089844 121.519531 L 177.195312 181.191406 L 145.988281 181.191406 C 145.941406 181.195312 145.894531 181.195312 145.84375 181.195312 L 110.757812 181.195312 C 109.238281 181.195312 108.363281 179.71875 108.363281 177.886719 C 108.363281 176.054688 109.976562 174.574219 111.496094 174.574219 L 133.902344 174.574219 " fill-opacity="1" fill-rule="evenodd"/></g><g clip-path="url(#7d83248747)"><path fill="#ffffff" d="M 263.402344 152.078125 L 229.804688 118.351562 L 215.722656 132.488281 L 231.714844 148.542969 L 204.464844 175.898438 L 222.070312 193.570312 L 263.402344 152.078125 " fill-opacity="1" fill-rule="evenodd"/></g><path fill="#0f2244" d="M 225.796875 183.246094 L 225.796875 185.222656 L 222.523438 188.507812 L 216.914062 182.878906 L 221.171875 178.605469 Z M 225.796875 173.964844 L 225.796875 175.941406 L 224.8125 174.953125 Z M 225.796875 126.984375 L 225.796875 128.386719 L 225.09375 127.6875 Z M 225.796875 185.222656 L 225.796875 183.246094 L 226.777344 184.234375 Z M 233.691406 175.320312 L 233.691406 177.296875 L 230.417969 180.582031 L 225.796875 175.941406 L 225.796875 173.964844 L 229.066406 170.679688 Z M 233.691406 127.765625 L 233.691406 130.3125 L 230.699219 133.3125 L 225.796875 128.386719 L 225.796875 126.984375 L 229.351562 123.410156 Z M 233.691406 166.039062 L 232.707031 167.027344 L 233.691406 168.015625 Z M 233.691406 130.3125 L 233.691406 127.765625 L 234.957031 129.039062 Z M 233.691406 177.296875 L 233.691406 175.320312 L 234.675781 176.308594 Z M 241.585938 158.117188 L 241.585938 160.089844 L 240.601562 159.101562 Z M 241.585938 167.394531 L 236.964844 162.753906 L 233.691406 166.039062 L 233.691406 168.015625 L 238.3125 172.65625 L 241.585938 169.371094 Z M 249.480469 159.46875 L 249.480469 161.445312 L 246.207031 164.730469 L 241.585938 160.089844 L 241.585938 158.117188 L 244.859375 154.828125 Z M 249.480469 150.191406 L 249.480469 152.164062 L 248.496094 151.175781 Z M 242.570312 168.382812 L 241.585938 167.394531 L 241.585938 169.371094 Z M 249.480469 152.164062 L 249.480469 150.191406 L 252.753906 146.902344 L 258.359375 152.53125 L 254.101562 156.804688 Z M 249.480469 161.445312 L 249.480469 159.46875 L 250.464844 160.457031 L 249.480469 161.445312 " fill-opacity="1" fill-rule="evenodd"/><g clip-path="url(#ddcf244ab7)"><path fill="#ffffff" d="M 227.019531 148.542969 L 193.425781 114.816406 L 152.09375 156.308594 L 185.6875 190.035156 L 227.019531 148.542969 " fill-opacity="1" fill-rule="evenodd"/></g><path fill="#0f2244" d="M 166.011719 156.21875 L 166.011719 158.195312 L 162.738281 161.480469 L 157.132812 155.855469 L 161.390625 151.582031 Z M 166.011719 146.941406 L 166.011719 148.917969 L 165.027344 147.929688 Z M 166.011719 158.195312 L 166.011719 156.21875 L 166.996094 157.207031 Z M 173.90625 148.292969 L 173.90625 150.269531 L 170.632812 153.554688 L 166.011719 148.917969 L 166.011719 146.941406 L 169.285156 143.65625 Z M 173.90625 139.015625 L 173.90625 140.992188 L 172.925781 140.003906 Z M 173.90625 150.269531 L 173.90625 148.292969 L 174.890625 149.28125 Z M 181.804688 178.074219 L 181.804688 180.617188 L 180.535156 179.347656 Z M 181.804688 140.367188 L 181.804688 142.34375 L 178.53125 145.628906 L 173.90625 140.992188 L 173.90625 139.015625 L 177.179688 135.730469 Z M 181.804688 131.089844 L 180.820312 132.078125 L 181.804688 133.066406 Z M 181.804688 142.34375 L 181.804688 140.367188 L 182.789062 141.355469 Z M 189.414062 179.710938 L 189.414062 181.6875 L 186.140625 184.972656 L 181.804688 180.617188 L 181.804688 178.074219 L 184.792969 175.070312 Z M 189.414062 170.433594 L 189.414062 172.410156 L 188.429688 171.421875 Z M 189.414062 123.449219 L 189.414062 124.855469 L 188.714844 124.152344 Z M 189.414062 132.15625 L 185.078125 127.804688 L 181.804688 131.089844 L 181.804688 133.066406 L 186.425781 137.703125 L 189.414062 134.703125 Z M 189.414062 181.6875 L 189.414062 179.710938 L 190.398438 180.699219 Z M 197.308594 171.785156 L 197.308594 173.761719 L 194.035156 177.046875 L 189.414062 172.410156 L 189.414062 170.433594 L 192.6875 167.148438 Z M 197.308594 162.507812 L 197.308594 164.484375 L 196.324219 163.496094 Z M 197.308594 124.230469 L 197.308594 126.777344 L 194.320312 129.777344 L 189.414062 124.855469 L 189.414062 123.449219 L 192.972656 119.878906 Z M 190.683594 133.429688 L 189.414062 132.15625 L 189.414062 134.703125 Z M 197.308594 126.777344 L 197.308594 124.230469 L 198.578125 125.503906 Z M 197.308594 173.761719 L 197.308594 171.785156 L 198.292969 172.773438 Z M 205.203125 163.859375 L 205.203125 165.835938 L 201.929688 169.121094 L 197.308594 164.484375 L 197.308594 162.507812 L 200.582031 159.222656 Z M 205.203125 154.582031 L 205.203125 156.554688 L 204.21875 155.570312 Z M 205.203125 165.835938 L 205.203125 163.859375 L 206.1875 164.847656 Z M 213.101562 155.933594 L 213.101562 157.910156 L 209.828125 161.195312 L 205.203125 156.554688 L 205.203125 154.582031 L 208.476562 151.296875 Z M 213.101562 146.65625 L 213.101562 148.628906 L 212.117188 147.644531 Z M 213.101562 148.628906 L 213.101562 146.65625 L 216.371094 143.371094 L 221.980469 148.996094 L 217.722656 153.269531 Z M 213.101562 157.910156 L 213.101562 155.933594 L 214.082031 156.921875 L 213.101562 157.910156 " fill-opacity="1" fill-rule="evenodd"/><g fill="#ffffff" fill-opacity="1"><g transform="translate(153.911614, 218.628766)"><g><path d="M 0.550781 -15.375 L 0.550781 -12.472656 L 1.761719 -12.472656 L 1.761719 -2.902344 L 0.550781 -2.902344 L 0.550781 0 L 7.675781 0 L 7.675781 -2.902344 L 6.3125 -2.902344 L 6.3125 -6.226562 L 10.492188 -6.226562 L 10.492188 -2.902344 L 9.195312 -2.902344 L 9.195312 0 L 16.34375 0 L 16.34375 -2.902344 L 15.066406 -2.902344 L 15.066406 -12.472656 L 16.34375 -12.472656 L 16.34375 -15.375 L 9.195312 -15.375 L 9.195312 -12.472656 L 10.492188 -12.472656 L 10.492188 -9.152344 L 6.3125 -9.152344 L 6.3125 -12.472656 L 7.675781 -12.472656 L 7.675781 -15.375 Z M 0.550781 -15.375 "/></g></g></g><g fill="#ffffff" fill-opacity="1"><g transform="translate(171.574602, 218.628766)"><g><path d="M 8.203125 0.394531 C 13.175781 0.394531 15.949219 -2.640625 15.949219 -7.609375 C 15.949219 -12.5625 13.441406 -15.792969 8.050781 -15.792969 C 3.496094 -15.792969 0.328125 -12.515625 0.328125 -7.765625 C 0.328125 -2.265625 3.609375 0.394531 8.203125 0.394531 Z M 8.203125 -3.058594 C 6.796875 -3.058594 5.761719 -4.882812 5.761719 -7.765625 C 5.761719 -10.492188 6.6875 -12.429688 8.027344 -12.40625 C 9.722656 -12.40625 10.449219 -10.273438 10.449219 -7.609375 C 10.449219 -4.882812 9.589844 -3.058594 8.203125 -3.058594 Z M 8.203125 -3.058594 "/></g></g></g><g fill="#ffffff" fill-opacity="1"><g transform="translate(188.621703, 218.628766)"><g><path d="M 8.203125 0.394531 C 13.175781 0.394531 15.949219 -2.640625 15.949219 -7.609375 C 15.949219 -12.5625 13.441406 -15.792969 8.050781 -15.792969 C 3.496094 -15.792969 0.328125 -12.515625 0.328125 -7.765625 C 0.328125 -2.265625 3.609375 0.394531 8.203125 0.394531 Z M 8.203125 -3.058594 C 6.796875 -3.058594 5.761719 -4.882812 5.761719 -7.765625 C 5.761719 -10.492188 6.6875 -12.429688 8.027344 -12.40625 C 9.722656 -12.40625 10.449219 -10.273438 10.449219 -7.609375 C 10.449219 -4.882812 9.589844 -3.058594 8.203125 -3.058594 Z M 8.203125 -3.058594 "/></g></g></g><g fill="#ffffff" fill-opacity="1"><g transform="translate(205.668803, 218.628766)"><g><path d="M 15.089844 -15.375 L 0.328125 -15.375 L 0.328125 -9.65625 L 3.5625 -9.65625 L 3.5625 -12.472656 L 5.457031 -12.472656 L 5.457031 -2.925781 L 3.652344 -2.925781 L 3.652344 0 L 11.835938 0 L 11.835938 -2.925781 L 10.007812 -2.925781 L 10.007812 -12.472656 L 11.855469 -12.472656 L 11.855469 -9.65625 L 15.089844 -9.65625 Z M 15.089844 -15.375 "/></g></g></g></svg>